<svg viewBox="0 0 71 70" fill="none" stroke="defaultColor" xmlns="http://www.w3.org/2000/svg">
<path d="M46.8549 12.7635L63.8573 6.64267L57.7365 23.6451L56.9258 25.8969L58.5268 27.6759L65.1186 35L58.5268 42.3241L56.9258 44.1031L57.7365 46.3549L63.8573 63.3573L46.8549 57.2365L44.6031 56.4258L42.8241 58.0268L35.5 64.6186L28.1759 58.0268L26.3969 56.4258L24.1451 57.2365L7.14267 63.3573L13.2635 46.3549L14.0742 44.1031L12.4732 42.3241L5.88145 35L12.4732 27.6759L14.0742 25.8969L13.2635 23.6451L7.14266 6.64266L24.1451 12.7635L26.3969 13.5742L28.1759 11.9732L35.5 5.38145L42.8241 11.9732L44.6031 13.5742L46.8549 12.7635Z" fill="black" stroke="defaultColor" stroke-width="8"/>
</svg>
