<svg  viewBox="0 0 73 73" fill="none" xmlns="http://www.w3.org/2000/svg">
<path fill-rule="evenodd" clip-rule="evenodd" d="M0.500127 36.4996C0.498438 33.3031 0.923698 30.1208 1.76463 27.0369H14.554C13.7727 33.3212 13.7727 39.678 14.554 45.9623H1.76477C0.923737 42.8784 0.498429 39.6961 0.500127 36.4996ZM49.7318 69.9806C50.926 68.3916 51.9818 66.7032 52.8877 64.934C54.9709 60.9093 56.56 56.209 57.6016 51.1055H69.4016C65.5542 59.7193 58.4969 66.4915 49.7318 69.9806ZM3.59866 51.1053H15.4C16.4394 56.2089 18.0307 60.9091 20.1139 64.9338C21.0188 66.7038 22.0747 68.3923 23.27 69.9806C14.5043 66.4918 7.44635 59.7195 3.59866 51.1053ZM23.27 3.01861C22.0749 4.607 21.019 6.29545 20.1139 8.06522C18.0307 12.0908 16.4394 16.7902 15.4 21.8937H3.59866C7.44663 13.2797 14.5045 6.50759 23.27 3.01861ZM69.4016 21.8939H57.6016C56.56 16.7903 54.9709 12.0909 52.8877 8.06536C51.9816 6.29616 50.9258 4.60775 49.7318 3.01861C58.4968 6.508 65.554 13.2801 69.4016 21.8939ZM58.4454 27.0369H71.2355C72.9215 33.2327 72.9215 39.7665 71.2355 45.9623H58.4454C58.8386 42.8234 59.0346 39.663 59.0322 36.4996C59.0346 33.3362 58.8386 30.1758 58.4454 27.0369ZM39.0713 45.9623V27.0369H53.2604C53.6825 30.1734 53.8925 33.3348 53.889 36.4996C53.8925 39.6644 53.6825 42.8258 53.2604 45.9623H39.0713ZM39.0713 72.0623C42.4434 70.9259 45.7137 67.6068 48.3209 62.5708C50.0516 59.2239 51.4064 55.3384 52.348 51.1059H39.0713V72.0623ZM33.9282 51.1053H20.6532C21.5933 55.3382 22.948 59.2239 24.6803 62.5702C27.286 67.6063 30.5563 70.9253 33.9277 72.0624L33.9282 51.1053ZM33.9282 0.9375C30.5569 2.07403 27.2865 5.39377 24.6809 10.4297C22.9485 13.7766 21.5939 17.662 20.6538 21.8944H33.9288L33.9282 0.9375ZM39.0713 0.9375V21.8939H52.3486C51.4064 17.661 50.0522 13.7753 48.3215 10.4291C45.7143 5.39377 42.4428 2.07459 39.0713 0.9375ZM19.111 36.4996C19.1076 33.3349 19.3173 30.1735 19.7388 27.0369H33.9278V45.9623H19.7388C19.3173 42.8257 19.1076 39.6643 19.111 36.4996Z" fill="defaultColor"/>
</svg>
