<svg  viewBox="0 0 71 71" fill="none" xmlns="http://www.w3.org/2000/svg">
<path d="M70.5 68.4492L70.5 53.957L0.499998 53.957L0.499997 68.4492C0.499997 69.5828 1.4784 70.5 2.6875 70.5L68.3125 70.5C69.5216 70.5 70.5 69.5828 70.5 68.4492Z" fill="defaultColor"/>
<path d="M0.5 2.55078L0.499999 17.043L70.5 17.043L70.5 2.55078C70.5 1.41725 69.5216 0.5 68.3125 0.5L2.6875 0.499997C1.4784 0.499997 0.5 1.41724 0.5 2.55078Z" fill="#D9D9D9"/>
<path d="M70.5 21.1445L70.5 49.8555L60 49.8555L60 21.1445L70.5 21.1445Z" fill="#D9D9D9"/>
<path d="M55.625 21.1445L55.625 49.8555L45.125 49.8555L45.125 21.1445L55.625 21.1445Z" fill="#D9D9D9"/>
<path d="M40.75 21.1445L40.75 49.8555L30.25 49.8555L30.25 21.1445L40.75 21.1445Z" fill="#D9D9D9"/>
<path d="M25.875 21.1445L25.875 49.8555L15.375 49.8555L15.375 21.1445L25.875 21.1445Z" fill="#D9D9D9"/>
<path d="M11 21.1445L11 49.8555L0.499998 49.8555L0.499999 21.1445L11 21.1445Z" fill="defaultColor"/>
</svg>
